HIERARCHY
ROOT hip
{
	OFFSET 0.000000 0.000000 0.000000 
	CHANNELS 6 Xposition Yposition Zposition Xrotation Zrotation Yrotation
	JOINT abdomen
	{
		OFFSET 0.000000 3.402643 0.000000 
		CHANNELS 3 Xrotation Zrotation Yrotation
		JOINT chest
		{
			OFFSET 0.000000 8.438565 -0.680529 
			CHANNELS 3 Xrotation Zrotation Yrotation
			JOINT neck
			{
				OFFSET 0.000000 9.885400 -0.272212 
				CHANNELS 3 Xrotation Zrotation Yrotation
				JOINT head
				{
					OFFSET 0.000000 3.130431 0.000000 
					CHANNELS 3 Xrotation Zrotation Yrotation
					End Site
					{
						OFFSET 0.000000 3.039250 0.000000 
					}
				}
			}
			JOINT lCollar
			{
				OFFSET 3.238290 6.669187 -0.816635 
				CHANNELS 3 Yrotation Zrotation Xrotation
				JOINT lShldr
				{
					OFFSET 2.515050 0.000000 0.000000 
					CHANNELS 3 Zrotation Yrotation Xrotation
					JOINT lForeArm
					{
						OFFSET 11.517700 0.000000 0.000000 
						CHANNELS 3 Yrotation Zrotation Xrotation
						JOINT lHand
						{
							OFFSET 9.026700 0.000000 0.000000 
							CHANNELS 3 Zrotation Yrotation Xrotation
							End Site
							{
								OFFSET 4.028470 0.000000 0.000000 
							}
						}
					}
				}
			}
			JOINT rCollar
			{
				OFFSET -3.238290 6.669187 -0.816635 
				CHANNELS 3 Yrotation Zrotation Xrotation
				JOINT rShldr
				{
					OFFSET -2.515050 0.000000 0.000000 
					CHANNELS 3 Zrotation Yrotation Xrotation
					JOINT rForeArm
					{
						OFFSET -11.517700 0.000000 0.000000 
						CHANNELS 3 Yrotation Zrotation Xrotation
						JOINT rHand
						{
							OFFSET -9.026700 0.000000 0.000000 
							CHANNELS 3 Zrotation Yrotation Xrotation
							End Site
							{
								OFFSET -4.028470 0.000000 0.000000 
							}
						}
					}
				}
			}
		}
	}
	JOINT lThigh
	{
		OFFSET 4.983750 -1.633274 1.361059 
		CHANNELS 3 Xrotation Zrotation Yrotation
		JOINT lShin
		{
			OFFSET -2.041588 -20.007561 0.000000 
			CHANNELS 3 Xrotation Zrotation Yrotation
			JOINT lFoot
			{
				OFFSET 0.000000 -19.190928 -1.224953 
				CHANNELS 3 Xrotation Yrotation Zrotation
				End Site
				{
					OFFSET 0.000000 -2.449906 4.627600 
				}
			}
		}
	}
	JOINT rThigh
	{
		OFFSET -4.983750 -1.633274 1.361059 
		CHANNELS 3 Xrotation Zrotation Yrotation
		JOINT rShin
		{
			OFFSET 2.041588 -20.007561 0.000000 
			CHANNELS 3 Xrotation Zrotation Yrotation
			JOINT rFoot
			{
				OFFSET 0.000000 -19.190928 -1.224953 
				CHANNELS 3 Xrotation Yrotation Zrotation
				End Site
				{
					OFFSET 0.000000 -2.449906 4.627600 
				}
			}
		}
	}
}
MOTION
Frames: 16
Frame Time: 0.052666
-18.707182 38.924347 0.879328 -8.748950 2.563250 -10.048505 17.665760 -3.765517 0.436068 7.571040 -1.613793 0.186886 11.817200 -6.483980 9.453370 -17.234501 1.997320 2.284480 12.762873 -6.405754 -7.134110 -9.999802 -10.366500 -75.758598 -41.163700 0.439344 5.645390 -12.664600 9.383640 -17.739401 -0.638394 3.242897 2.409715 25.517700 21.601400 -41.436100 42.045502 -32.241699 38.936100 25.247200 -6.140880 -44.985500 -11.775635 16.944431 24.505417 36.872086 -0.998484 0.475589 -9.473186 9.673921 10.793634 -3.692202 -16.355629 -31.479160 30.618027 0.785362 0.746478 -13.915318 -12.585679 1.296815 
-15.240800 38.406628 2.220934 -7.121810 3.862540 -1.235171 15.427790 -1.689982 -0.552873 6.611910 -0.724278 -0.236946 12.377600 -4.355200 5.805800 -15.538500 2.715040 -0.857211 9.843884 -5.481373 -6.215529 -10.009701 -13.411700 -77.316902 -42.328300 0.124335 5.871910 -13.211100 9.766450 -18.242500 -3.522111 3.975428 0.059311 26.677601 12.200800 -40.290401 44.494499 -29.142799 37.889999 24.012400 -7.767020 -45.576199 -7.362692 12.697505 25.483730 23.607798 -2.788886 -0.932038 -8.114911 10.379542 7.295597 -5.080251 -21.945826 -28.538925 36.285412 0.043144 -4.962162 -8.216814 -15.810289 4.471129 
-11.651036 38.100155 2.886381 -7.788200 6.857240 7.022879 16.639980 -1.222186 -1.751771 7.131421 -0.523794 -0.750759 10.301500 -2.425560 2.196740 -14.660000 3.573800 -4.000970 7.540044 -4.871643 -6.276364 -10.107903 -17.862400 -77.499603 -42.445999 -0.079279 6.528930 -12.512300 10.231400 -18.461500 -5.469184 4.704273 -1.751792 28.034000 3.008200 -41.398701 45.780899 -27.342600 36.363602 22.637300 -9.086890 -45.852798 -7.596354 6.530159 24.000380 25.422901 -3.609321 -5.359678 -9.397285 10.049705 3.945583 -11.572131 -27.738834 -16.828859 51.311172 -3.916701 -8.831451 2.759956 -15.619761 -1.690509 
-8.558199 37.716019 3.179563 -9.074070 8.828430 14.499298 19.267639 -1.185618 -2.790508 8.257561 -0.508122 -1.195932 7.785440 0.861627 -0.399876 -14.851800 4.342490 -6.752870 5.619637 -2.606815 -5.751951 -8.985100 -21.429199 -75.839401 -41.320301 0.606540 6.649130 -12.252800 11.171500 -18.709900 -7.292199 7.327435 -3.243474 29.662300 -2.460900 -42.794498 45.000099 -27.028099 34.551201 22.197300 -10.570000 -46.300499 -8.765030 1.139912 18.288355 31.766596 -3.795973 -6.286519 -13.688085 9.447515 6.980713 -20.787191 -27.346926 -7.681043 68.506989 -10.272060 0.149963 7.028677 -12.132940 -8.239054 
-6.194615 37.299728 3.536629 -8.598320 9.547350 21.155706 21.168560 -1.451940 -3.638446 9.072241 -0.622260 -1.559334 4.873900 4.653670 -2.477520 -14.332600 5.564790 -9.220300 3.901937 0.502829 -5.244803 -7.078899 -23.900900 -74.507301 -39.702000 1.608370 6.007950 -12.568300 10.784200 -18.612801 -9.491645 10.559432 -5.613978 32.472099 -4.736960 -43.037601 43.458599 -27.604099 33.179600 22.172199 -12.032900 -46.735199 -10.246471 -3.300714 11.865949 36.142586 -3.554590 -7.603493 -17.689550 10.648215 11.271602 -32.680077 -20.650383 -4.888739 82.086731 -14.003034 5.896558 4.671318 -14.108666 -7.747582 
-4.366991 36.815536 3.946975 -7.012830 9.809190 28.105104 23.351999 -0.863996 -4.600267 10.008000 -0.370284 -1.971543 -0.032367 6.351640 -5.781180 -12.621300 7.766480 -11.141700 2.608641 3.029385 -6.943349 -5.575600 -26.363300 -74.456299 -37.804798 1.773770 5.722500 -12.137800 9.733320 -18.220699 -11.840616 12.189898 -8.918732 36.098301 -6.051440 -43.652000 41.312599 -28.762400 31.506201 21.576200 -12.192900 -46.401199 -12.299797 -6.121633 9.274554 40.568329 -2.771092 -13.105380 -20.534079 12.454796 14.657019 -45.462032 -12.946043 -11.498199 88.753113 -14.871473 1.497529 3.370957 -13.350085 -7.848969 
-2.888596 36.042526 4.486992 -4.922230 10.677200 36.087204 25.844978 0.100885 -5.968067 11.076420 0.043237 -2.557743 -5.508040 7.122350 -10.022000 -11.453700 9.493270 -12.969800 1.097081 5.826588 -9.083792 -3.534100 -29.493799 -76.353401 -35.452900 2.295310 6.051670 -11.577200 9.178750 -17.966900 -14.712330 13.479259 -12.469425 38.968102 -8.628510 -45.022800 40.886002 -29.408800 28.997101 20.409700 -13.599000 -46.427101 -17.630945 -6.805877 14.535143 51.918087 -1.181238 -18.607632 -19.335171 10.981586 18.391766 -54.529568 -7.938571 -23.416094 85.320076 -13.593422 -2.462398 3.209961 -10.814320 -6.418948 
-1.387048 34.400238 5.368666 -1.859500 13.016000 43.823708 26.916189 -0.476344 -7.789040 11.535510 -0.204148 -3.338160 -6.225800 9.066430 -13.578700 -12.026300 9.503310 -15.907900 -0.259477 10.409927 -8.562927 -0.838200 -33.809799 -79.141602 -32.619999 4.238720 5.519980 -10.815500 10.408100 -18.180201 -17.734760 15.372063 -14.021640 40.883896 -12.122500 -48.403999 46.293900 -29.990101 28.935101 20.327900 -16.746599 -47.498299 -24.527761 -5.098971 29.977676 69.729370 1.584903 -17.131710 -12.446616 7.463116 25.420172 -55.252205 -6.034381 -33.369564 73.392845 -8.915668 -4.575565 4.815958 -12.742969 -6.418291 
0.771631 31.703472 6.709160 1.909420 14.635500 49.968006 25.055660 -1.671047 -9.213470 10.738140 -0.716163 -3.948630 -0.867269 10.902700 -15.290200 -12.781700 8.198600 -19.685699 -0.973821 14.254284 -7.115396 0.951401 -38.317902 -80.504303 -30.771000 6.326920 3.768440 -9.541630 12.789400 -18.553400 -19.613688 16.177494 -13.916460 40.806503 -15.023700 -56.575199 57.163300 -28.580299 32.973801 20.694599 -17.794300 -48.291199 -26.350817 -4.819936 44.099007 83.258163 6.834384 -12.767914 -13.653447 5.785960 28.792561 -50.414806 -4.604822 -38.925137 63.467960 -5.167183 -5.209661 -2.277193 -13.354466 -16.439131 
3.123712 28.903864 7.927015 3.166840 15.015400 52.383106 23.326029 -1.774311 -9.094680 9.996870 -0.760419 -3.897720 3.547380 11.055200 -15.384000 -12.703500 7.888220 -22.102100 -0.608918 14.998600 -6.513676 1.933701 -40.980900 -81.821503 -32.201599 7.342840 3.362020 -8.848170 14.531100 -18.827000 -19.239122 15.525555 -13.488467 39.378204 -15.026300 -68.043404 68.034798 -22.771099 38.249599 20.714199 -16.471399 -48.454300 -25.224306 -4.384752 49.898026 93.617432 12.380158 -16.306982 -18.288887 5.838696 30.425220 -48.366859 -1.375861 -37.224865 64.474716 -5.606925 -8.759172 -19.434517 -9.282586 -28.179243 
4.791654 27.265219 8.567219 1.359480 16.327101 53.132408 23.786211 -0.985467 -8.363879 10.194091 -0.422343 -3.584520 6.276130 10.953000 -15.226700 -13.243400 8.279400 -22.970800 -1.161885 14.057499 -4.655107 2.280701 -41.326801 -82.940804 -35.184299 6.371700 4.349160 -8.204750 15.209600 -18.934900 -18.213436 15.435989 -11.399516 38.565201 -12.158500 -76.379700 75.326797 -15.286300 41.052299 20.076099 -15.950900 -48.381901 -23.358339 -1.173448 51.668732 102.384117 15.183422 -17.454752 -13.192318 4.131835 32.663170 -49.058697 -0.515025 -35.619583 73.258690 -7.900893 -16.570133 -27.733677 -6.663775 -26.590990 
5.705785 27.109257 8.925405 -0.218137 17.846800 53.001408 23.991379 -0.662056 -7.820189 10.282021 -0.283738 -3.351510 9.286700 10.408200 -14.578900 -12.658000 8.291400 -23.087500 -1.609976 11.914696 -3.015113 0.113201 -40.611099 -80.278702 -36.994801 3.704910 5.138530 -8.166030 15.579900 -19.092800 -17.080639 15.457409 -8.951255 37.803200 -9.133610 -75.571899 77.854500 -13.299300 41.923500 19.879601 -15.552400 -47.981800 -23.445749 2.047909 50.545143 106.201385 16.344521 -18.165627 -0.995781 1.709721 26.873293 -47.634834 -1.502576 -36.002941 77.533501 -8.956315 -19.980082 -28.392298 -5.664583 -22.733599 
5.736889 28.053473 9.004371 -1.265040 18.854500 51.078606 24.097849 -1.320081 -7.342300 10.327650 -0.565749 -3.146700 10.801900 10.161000 -13.376000 -11.998500 7.945680 -22.783501 -1.439046 10.500790 -1.784201 -2.209400 -39.531101 -77.822502 -37.272202 2.337140 6.826380 -9.186350 14.520500 -18.985701 -15.996645 15.469376 -7.375211 36.389500 -6.901880 -71.711700 77.580704 -13.080500 42.196201 20.612900 -15.464600 -48.047001 -25.808214 3.823958 48.646252 105.768471 17.181543 -20.728762 6.793838 1.614534 13.790950 -43.785686 -1.081541 -35.211193 74.420013 -8.027948 -15.167839 -26.972309 -7.890805 -24.810074 
4.759790 29.601238 8.732628 -1.874430 19.487101 48.007408 24.390728 -2.586990 -7.102130 10.453170 -1.108710 -3.043770 11.712100 9.639010 -12.212700 -12.586700 7.977250 -21.852800 -0.792694 9.265522 -1.149512 -3.167999 -38.557098 -77.038200 -36.427101 2.379620 8.731820 -10.525900 13.427700 -18.952801 -15.039104 14.867964 -6.187819 35.356201 -4.856630 -68.672501 77.841003 -12.892400 43.887001 21.905800 -15.030800 -48.247299 -29.432142 3.025848 43.841022 103.253181 17.291136 -22.892599 3.051398 1.001073 6.861625 -39.860764 0.001663 -34.567074 67.084312 -6.426084 -8.050163 -21.164829 -10.442807 -29.022621 
3.084354 31.416891 8.084164 -2.625630 19.843000 43.436405 24.899841 -3.767099 -6.983711 10.671361 -1.614471 -2.993019 12.308600 7.419060 -11.238000 -13.691800 8.782870 -19.849001 0.157624 6.669847 -1.477318 -2.973600 -34.962002 -74.855904 -35.114101 1.483170 10.003800 -10.693100 13.616500 -19.094400 -13.658525 12.257423 -4.044791 35.303501 -1.947880 -67.544296 79.168503 -12.694600 45.911201 22.641701 -14.247400 -48.238400 -27.859934 -0.147198 33.081165 91.236946 13.730494 -27.296080 -2.403039 -2.509507 9.402946 -38.737743 -0.242859 -34.727478 62.133110 -6.327546 0.941783 -6.146982 -12.264881 -25.590244 
1.378427 33.123909 7.076615 -4.898540 18.047400 37.783703 25.810890 -2.540993 -6.439713 11.061810 -1.088997 -2.759877 10.785700 4.197780 -10.554500 -14.722300 8.504790 -17.104799 0.956956 3.366749 -3.055490 -3.987000 -27.971500 -70.751701 -34.672401 0.287015 9.667500 -10.140000 14.208300 -19.004700 -12.905824 8.163710 -2.743343 32.908901 2.507800 -66.987000 79.493896 -12.795700 46.952301 22.689600 -13.949400 -48.224701 -19.707792 -2.445027 23.284203 74.692169 7.236975 -29.884041 -15.284375 -0.569222 17.253304 -41.580139 -1.991268 -33.419781 64.609154 -8.671833 11.511127 10.446913 -8.949485 -10.738462 
